<svg width="17" height="17" viewBox="0 0 17 17" fill="none" xmlns="http://www.w3.org/2000/svg">
<path d="M13.4883 16.8332C12.7547 16.8332 11.7242 16.5679 10.1811 15.7059C8.30458 14.6538 6.85316 13.6825 4.98683 11.8215C3.1874 10.0235 2.31174 8.85943 1.08619 6.62973C-0.298334 4.11222 -0.0623187 2.79259 0.201508 2.22859C0.515694 1.5545 0.979457 1.15132 1.57889 0.751149C1.91937 0.528118 2.27967 0.33693 2.65524 0.180011C2.69282 0.163853 2.72778 0.148448 2.75897 0.134545C2.945 0.0507532 3.22687 -0.0758741 3.5839 0.0593954C3.82217 0.148824 4.03488 0.331813 4.36786 0.660593C5.05072 1.33393 5.98389 2.83355 6.32814 3.57001C6.55927 4.06638 6.71223 4.39403 6.7126 4.76151C6.7126 5.19175 6.49613 5.52353 6.23343 5.88162C6.1842 5.94888 6.13534 6.01313 6.08799 6.07551C5.80199 6.45125 5.73923 6.55985 5.78057 6.75373C5.86438 7.14338 6.48937 8.30332 7.51649 9.32799C8.5436 10.3527 9.67031 10.9381 10.0615 11.0215C10.2637 11.0647 10.3746 10.9993 10.7625 10.7032C10.8181 10.6608 10.8752 10.6168 10.935 10.5728C11.3356 10.2749 11.652 10.0641 12.0722 10.0641H12.0744C12.4401 10.0641 12.7532 10.2226 13.2718 10.4842C13.9483 10.8253 15.4933 11.7463 16.1709 12.4298C16.5005 12.762 16.6843 12.9739 16.7741 13.2117C16.9094 13.5698 16.782 13.8505 16.6989 14.0384C16.685 14.0696 16.6696 14.1037 16.6534 14.1417C16.4953 14.5165 16.3029 14.876 16.0788 15.2156C15.6793 15.813 15.2746 16.2756 14.5988 16.5901C14.2518 16.7542 13.8721 16.8373 13.4883 16.8332Z" fill="white"/>
</svg>
