<svg width="22" height="17" viewBox="0 0 22 17" fill="none" xmlns="http://www.w3.org/2000/svg">
<path d="M20.6591 0H0.765152C0.562221 0 0.367601 0.0806141 0.224108 0.224108C0.0806139 0.367602 0 0.562221 0 0.765152V16.0682C0 16.2711 0.0806139 16.4657 0.224108 16.6092C0.367601 16.7527 0.562221 16.8333 0.765152 16.8333H20.6591C20.862 16.8333 21.0566 16.7527 21.2001 16.6092C21.3436 16.4657 21.4242 16.2711 21.4242 16.0682V0.765152C21.4242 0.562221 21.3436 0.367602 21.2001 0.224108C21.0566 0.0806141 20.862 0 20.6591 0ZM11.1817 9.78581C11.0474 9.8902 10.8822 9.94687 10.7121 9.94687C10.542 9.94687 10.3768 9.8902 10.2425 9.78581L2.75215 3.96014L3.69138 2.75215L10.7121 8.21247L17.7329 2.75215L18.6721 3.96014L11.1817 9.78581Z" fill="white"/>
</svg>
