<svg width="16" height="22" viewBox="0 0 16 22" fill="none" xmlns="http://www.w3.org/2000/svg">
<path d="M7.6517 9.1823C8.49689 9.1823 9.18206 8.49714 9.18206 7.65194C9.18206 6.80675 8.49689 6.12158 7.6517 6.12158C6.8065 6.12158 6.12134 6.80675 6.12134 7.65194C6.12134 8.49714 6.8065 9.1823 7.6517 9.1823Z" fill="white"/>
<path d="M7.6518 0C3.43279 0 0 3.2831 0 7.31703C0 9.23811 0.875653 11.7929 2.60257 14.9105C3.98946 17.4136 5.59394 19.6771 6.42847 20.8033C6.56948 20.9958 6.75386 21.1523 6.96665 21.2601C7.17944 21.368 7.41466 21.4242 7.65323 21.4242C7.89181 21.4242 8.12702 21.368 8.33982 21.2601C8.55261 21.1523 8.73699 20.9958 8.878 20.8033C9.71109 19.6771 11.317 17.4136 12.7039 14.9105C14.4279 11.7938 15.3036 9.23907 15.3036 7.31703C15.3036 3.2831 11.8708 0 7.6518 0ZM7.6518 10.7125C7.04645 10.7125 6.45469 10.533 5.95135 10.1967C5.44802 9.86038 5.05572 9.38236 4.82406 8.82309C4.5924 8.26381 4.53179 7.64841 4.64989 7.05468C4.76799 6.46096 5.05949 5.91559 5.48754 5.48754C5.91559 5.05949 6.46096 4.76799 7.05468 4.64989C7.6484 4.53179 8.26381 4.5924 8.82309 4.82406C9.38236 5.05572 9.86038 5.44802 10.1967 5.95136C10.533 6.45469 10.7125 7.04645 10.7125 7.6518C10.7116 8.46328 10.3889 9.24127 9.81508 9.81508C9.24127 10.3889 8.46328 10.7116 7.6518 10.7125Z" fill="white"/>
</svg>
