<svg width="21" height="22" viewBox="0 0 21 22" fill="none" xmlns="http://www.w3.org/2000/svg">
<path fill-rule="evenodd" clip-rule="evenodd" d="M10.0766 0C15.6327 0 20.1522 4.51941 20.1522 10.0756C20.1522 12.6969 19.1462 15.0878 17.4999 16.8821L20.7392 20.1146C21.0424 20.4178 21.0434 20.9082 20.7403 21.2113C20.5892 21.3645 20.3895 21.44 20.1908 21.44C19.9932 21.44 19.7946 21.3645 19.6425 21.2134L16.3641 17.9442C14.6395 19.3253 12.4529 20.1522 10.0766 20.1522C4.52045 20.1522 0 15.6317 0 10.0756C0 4.51941 4.52045 0 10.0766 0ZM10.0766 1.552C5.37611 1.552 1.552 5.37508 1.552 10.0756C1.552 14.776 5.37611 18.6002 10.0766 18.6002C14.776 18.6002 18.6002 14.776 18.6002 10.0756C18.6002 5.37508 14.776 1.552 10.0766 1.552Z" fill="#FAFAFA" fill-opacity="0.8"/>
</svg>
